<svg xmlns="http://www.w3.org/2000/svg" xmlns:xlink="http://www.w3.org/1999/xlink" version="1.1" x="0px" y="0px" viewBox="0 0 90 90" enable-background="new 0 0 90 90" xml:space="preserve"><g display="none"><g display="inline"><path d="M25.631,26.004c1.281,1.281,1.281,3.356,0,4.637L7.641,48.631c-1.28,1.281-3.356,1.281-4.637,0l-0.313-0.313    c-1.28-1.28-1.28-3.356,0-4.637l17.991-17.991c1.28-1.28,3.356-1.28,4.637,0L25.631,26.004z"></path><path d="M25.631,61.359c1.281,1.28,1.281,3.356,0,4.637l-0.313,0.313c-1.28,1.281-3.356,1.281-4.637,0L2.691,48.318    c-1.28-1.28-1.28-3.356,0-4.637l0.313-0.313c1.281-1.281,3.356-1.281,4.637,0L25.631,61.359z"></path></g><g display="inline"><path d="M64.691,26.004c-1.281,1.281-1.281,3.356,0,4.637l17.99,17.99c1.28,1.281,3.355,1.281,4.637,0l0.313-0.313    c1.281-1.28,1.281-3.356,0-4.637l-17.99-17.991c-1.28-1.28-3.356-1.28-4.637,0L64.691,26.004z"></path><path d="M64.691,61.359c-1.281,1.28-1.281,3.356,0,4.637l0.313,0.313c1.28,1.281,3.356,1.281,4.637,0l17.99-17.99    c1.281-1.28,1.281-3.356,0-4.637l-0.313-0.313c-1.281-1.281-3.356-1.281-4.637,0L64.691,61.359z"></path></g><g display="inline"><circle cx="49.919" cy="36.648" r="3.601"></circle><g><path d="M57.314,35h-3.146c0.301,0,0.475,1.263,0.475,2s-0.174,1-0.475,2h3.146c1.134,0,2.053-0.866,2.053-2S58.448,35,57.314,35     z"></path><path d="M45.195,37c0-0.737,0.173-2,0.474-2H32.686c-1.133,0-2.052,0.866-2.052,2s0.919,2,2.052,2h12.983     C45.368,38,45.195,37.737,45.195,37z"></path></g><circle cx="38.425" cy="46.5" r="3.601"></circle><g><path d="M33.702,46.5c0-0.737,0.173-1.5,0.474-2.5h-1.49c-1.133,0-2.052,1.366-2.052,2.5s0.919,2.5,2.052,2.5h1.49     C33.875,48,33.702,47.236,33.702,46.5z"></path><path d="M57.314,44h-14.64c0.3,1,0.474,1.763,0.474,2.5c0,0.736-0.174,1.5-0.474,2.5h14.64c1.134,0,2.053-1.366,2.053-2.5     S58.448,44,57.314,44z"></path></g><circle cx="53.202" cy="56.352" r="3.601"></circle><g><path d="M48.479,56c0-0.736,0.173-1,0.475-2H32.686c-1.133,0-2.052,0.867-2.052,2c0,1.135,0.919,2,2.052,2h16.268     C48.652,58,48.479,56.736,48.479,56z"></path><path d="M57.459,54.313c0.296,0.618,0.467,1.307,0.467,2.038s-0.171,1.42-0.467,2.038c1.064-0.075,1.908-0.954,1.908-2.038     S58.523,54.389,57.459,54.313z"></path></g></g></g><g><g><circle cx="48.669" cy="37.639" r="3.601"></circle><g><path d="M56.064,36h-3.146c0.301,0,0.475,1.263,0.475,2s-0.174,1-0.475,2h3.146c1.134,0,2.053-0.866,2.053-2S57.198,36,56.064,36     z"></path><path d="M43.945,38c0-0.737,0.173-2,0.474-2H31.436c-1.133,0-2.052,0.866-2.052,2s0.919,2,2.052,2h12.983     C44.118,39,43.945,38.737,43.945,38z"></path></g><circle cx="37.175" cy="47.49" r="3.601"></circle><g><path d="M32.452,47.5c0-0.737,0.173-1.5,0.474-2.5h-1.49c-1.133,0-2.052,1.366-2.052,2.5s0.919,2.5,2.052,2.5h1.49     C32.625,49,32.452,48.236,32.452,47.5z"></path><path d="M56.064,45h-14.64c0.3,1,0.474,1.763,0.474,2.5c0,0.736-0.174,1.5-0.474,2.5h14.64c1.134,0,2.053-1.366,2.053-2.5     S57.198,45,56.064,45z"></path></g><circle cx="51.952" cy="57.342" r="3.601"></circle><g><path d="M47.229,57c0-0.736,0.173-1,0.475-2H31.436c-1.133,0-2.052,0.867-2.052,2c0,1.135,0.919,2,2.052,2h16.268     C47.402,59,47.229,57.736,47.229,57z"></path><path d="M56.209,55.304c0.296,0.618,0.467,1.307,0.467,2.038s-0.171,1.42-0.467,2.038c1.064-0.075,1.908-0.954,1.908-2.038     S57.273,55.379,56.209,55.304z"></path></g></g><g><path d="M14.773,47.502c1.067,0.662,1.902,1.402,2.503,2.222c0.601,0.819,1.022,1.864,1.263,3.135    c0.24,1.271,0.361,2.898,0.361,4.884c0,1.488,0.034,2.586,0.102,3.293c0.067,0.706,0.203,1.244,0.406,1.612    c0.203,0.368,0.447,0.609,0.733,0.722c0.285,0.113,0.774,0.222,1.466,0.327c0.571,0.075,1.045,0.354,1.421,0.835    c0.376,0.48,0.564,1.112,0.564,1.895c0,1.819-1.105,2.729-3.315,2.729c-1.369,0-2.59-0.285-3.666-0.856    c-1.075-0.572-1.906-1.38-2.492-2.425s-0.887-2.244-0.902-3.598c-0.045-2.286-0.09-4.12-0.135-5.503    c-0.045-1.384-0.113-2.278-0.203-2.685c-0.226-1.007-0.561-1.767-1.004-2.278c-0.444-0.511-1.023-0.988-1.737-1.432    c-0.714-0.443-1.222-0.842-1.522-1.195s-0.451-0.914-0.451-1.681c0-1.112,0.436-1.947,1.309-2.504    c1.083-0.676,1.853-1.251,2.312-1.725s0.782-1.083,0.97-1.827c0.188-0.744,0.296-1.556,0.327-2.436    c0.03-0.88,0.075-2.996,0.135-6.35c0.045-2.075,0.703-3.732,1.974-4.973s2.966-1.861,5.086-1.861c2.21,0,3.315,0.895,3.315,2.684    c0,0.812-0.185,1.451-0.553,1.917c-0.369,0.466-0.846,0.737-1.432,0.812c-0.872,0.121-1.481,0.301-1.827,0.542    c-0.346,0.241-0.571,0.707-0.676,1.398c-0.105,0.692-0.173,2.03-0.203,4.015c-0.03,1.94-0.146,3.53-0.35,4.771    c-0.203,1.24-0.602,2.297-1.195,3.169C16.761,46.006,15.9,46.795,14.773,47.502z"></path></g><g><path d="M70.145,45.134c-0.594-0.872-0.992-1.929-1.195-3.169c-0.203-1.241-0.318-2.831-0.35-4.771    c-0.029-1.985-0.098-3.323-0.203-4.015c-0.104-0.691-0.33-1.158-0.676-1.398c-0.346-0.24-0.955-0.421-1.827-0.542    c-0.587-0.075-1.063-0.346-1.433-0.812c-0.367-0.466-0.553-1.105-0.553-1.917c0-1.789,1.105-2.684,3.316-2.684    c2.119,0,3.815,0.62,5.086,1.861s1.928,2.898,1.974,4.973c0.06,3.354,0.104,5.47,0.136,6.35c0.029,0.879,0.139,1.691,0.326,2.436    c0.188,0.745,0.512,1.354,0.971,1.827c0.458,0.474,1.229,1.049,2.311,1.725c0.873,0.557,1.309,1.392,1.309,2.504    c0,0.767-0.15,1.327-0.451,1.681s-0.808,0.752-1.521,1.195c-0.715,0.443-1.293,0.921-1.737,1.432    c-0.443,0.512-0.778,1.271-1.004,2.278c-0.09,0.406-0.157,1.301-0.202,2.685c-0.046,1.383-0.091,3.217-0.136,5.503    c-0.015,1.354-0.315,2.553-0.902,3.598s-1.417,1.853-2.492,2.425c-1.075,0.571-2.297,0.856-3.665,0.856    c-2.211,0-3.316-0.909-3.316-2.729c0-0.782,0.188-1.414,0.564-1.895c0.376-0.481,0.85-0.76,1.421-0.835    c0.692-0.105,1.181-0.214,1.466-0.327c0.286-0.112,0.53-0.354,0.733-0.722c0.202-0.368,0.339-0.906,0.405-1.612    c0.068-0.707,0.102-1.805,0.102-3.293c0-1.985,0.121-3.612,0.361-4.884c0.24-1.271,0.662-2.315,1.264-3.135    s1.436-1.56,2.503-2.222C71.6,46.795,70.739,46.006,70.145,45.134z"></path></g></g></svg>