<?xml version="1.0" standalone="no"?>
<svg version="1.0" xmlns="http://www.w3.org/2000/svg" width="128pt" height="128pt" viewBox="0 0 128 128" preserveAspectRatio="xMidYMid meet"><g transform="translate(0.000000,128.000000) scale(0.100000,-0.100000)" stroke="none"><path d="M588 1069 c-10 -5 -18 -19 -18 -29 0 -28 -39 -65 -89 -84 -39 -15 -46 -15 -67 -1 -33 21 -67 19 -91 -7 -33 -37 -34 -45 -17 -81 28 -59 -10 -167 -59 -167 -35 0 -47 -19 -47 -72 0 -38 4 -50 18 -54 64 -21 71 -27 93 -80 21 -54 21 -56 3 -89 -21 -40 -11 -73 31 -101 25 -16 28 -16 55 -1 38 23 67 21 119 -5 33 -17 47 -32 55 -58 11 -34 12 -35 65 -35 52 0 55 1 65 32 14 40 29 54 85 78 41 18 45 18 73 2 41 -24 60 -21 91 11 32 33 32 38 11 82 -14 27 -15 38 -4 72 13 47 51 88 78 88 30 0 44 24 40 72 -3 37 -7 45 -33 56 -55 24 -60 29 -82 83 -19 48 -20 56 -7 81 21 40 17 61 -14 91 -32 30 -48 33 -76 12 -27 -20 -48 -19 -107 6 -37 16 -51 28 -55 48 -4 14 -14 34 -22 44 -17 19 -67 22 -94 6z m108 -288 c155 -71 114 -301 -54 -301 -87 0 -150 53 -159 135 -10 82 28 143 104 170 50 18 60 18 109 -4z"/></g></svg>
