<?xml version="1.0" ?><svg height="56.25" id="svg2" version="1.1" width="56.25" xml:space="preserve" xmlns="http://www.w3.org/2000/svg" xmlns:cc="http://creativecommons.org/ns#" xmlns:dc="http://purl.org/dc/elements/1.1/" xmlns:inkscape="http://www.inkscape.org/namespaces/inkscape" xmlns:rdf="http://www.w3.org/1999/02/22-rdf-syntax-ns#" xmlns:svg="http://www.w3.org/2000/svg"><defs id="defs6"><clipPath id="clipPath16"><path d="M 0,0 0,45 45,45 45,0 0,0" id="path18"/></clipPath></defs><g id="g10" transform="matrix(1.25,0,0,-1.25,0,56.25)"><g id="g12"><g clip-path="url(#clipPath16)" id="g14"><g id="g20"><g id="g22"><g id="g24"><path d="m 9.347,6.027 0,32.946 c 0,0.843 0.684,1.527 1.527,1.527 l 13.349,0 11.43,-11.43 0,-23.043 C 35.653,5.184 34.969,4.5 34.126,4.5 l -23.252,0 c -0.843,0 -1.527,0.684 -1.527,1.527 z" id="path26" style="fill:#2b2b2b;fill-opacity:1;fill-rule:evenodd;stroke:none"/></g></g><g id="g28"><g id="g30"><path d="m 24.223,40.5 11.43,-11.43 -9.903,0 c -0.843,0 -1.527,0.684 -1.527,1.527 l 0,9.903 z" id="path32" style="fill:#525252;fill-opacity:1;fill-rule:evenodd;stroke:none"/></g></g><g id="g34"><g id="g36"><path d="m 15.603,11.116 1.573,-2.454 -0.937,0 -1.436,2.372 -0.593,0 0,-2.372 -0.772,0 0,5.514 1.557,0 c 0.559,0 1.001,-0.128 1.326,-0.383 0.357,-0.289 0.535,-0.677 0.535,-1.166 0,-0.443 -0.124,-0.789 -0.371,-1.038 -0.247,-0.25 -0.541,-0.408 -0.882,-0.473 z m 0.453,1.495 c 0,0.325 -0.117,0.57 -0.351,0.734 -0.182,0.132 -0.491,0.198 -0.925,0.198 l -0.57,0 0,-1.869 0.57,0 c 0.437,0 0.745,0.064 0.925,0.192 0.234,0.176 0.351,0.425 0.351,0.745 z" id="path38" style="fill:#e6e6e6;fill-opacity:1;fill-rule:nonzero;stroke:none"/></g></g><g id="g40"><g id="g42"><path d="m 20.075,14.191 2.252,-5.529 -0.863,0 -0.565,1.44 -2.369,0 -0.566,-1.44 -0.815,0 2.247,5.529 0.679,0 z m -1.326,-3.441 1.931,0 -0.968,2.474 -0.963,-2.474 z" id="path44" style="fill:#e6e6e6;fill-opacity:1;fill-rule:nonzero;stroke:none"/></g></g><g id="g46"><g id="g48"><path d="m 28.902,14.176 0.816,0 -1.588,-5.522 -0.761,0 -1.327,4.46 -1.319,-4.46 -0.757,0 -1.592,5.522 0.816,0 1.19,-4.347 1.272,4.347 0.792,0 1.268,-4.347 1.19,4.347 z" id="path50" style="fill:#e6e6e6;fill-opacity:1;fill-rule:nonzero;stroke:none"/></g></g></g></g></g></g></svg>